<svg id="svg" version="1.1" xmlns="http://www.w3.org/2000/svg" xmlns:xlink="http://www.w3.org/1999/xlink" width="400" height="400" viewBox="0, 0, 400,400"><g id="svgg"><path id="path0" d="M204.300 114.625 C 204.135 114.794,204.000 115.448,204.000 116.077 C 204.000 117.565,204.384 117.693,212.000 118.760 C 215.410 119.237,220.540 119.992,223.400 120.437 C 228.801 121.277,231.196 121.633,236.600 122.400 C 240.782 122.993,244.430 123.538,247.400 124.012 C 249.681 124.377,251.449 124.644,258.100 125.630 C 259.695 125.866,261.990 126.213,263.200 126.400 C 264.410 126.587,266.750 126.947,268.400 127.200 C 270.050 127.453,272.390 127.813,273.600 128.000 C 274.810 128.187,277.060 128.535,278.600 128.772 C 280.140 129.010,282.480 129.377,283.800 129.588 C 285.120 129.798,287.370 130.150,288.800 130.368 C 290.230 130.586,292.570 130.961,294.000 131.200 C 295.430 131.439,297.680 131.808,299.000 132.019 C 303.544 132.746,304.223 132.857,311.600 134.074 C 318.853 135.271,320.145 135.497,325.000 136.422 C 326.320 136.674,327.940 136.972,328.600 137.084 C 331.529 137.585,331.600 137.891,331.600 150.103 C 331.600 157.575,331.460 161.180,331.157 161.483 C 330.832 161.808,331.341 161.900,333.057 161.827 C 334.345 161.772,336.165 161.699,337.100 161.664 L 338.800 161.600 338.800 149.275 C 338.800 137.918,338.739 136.825,338.028 135.352 L 337.256 133.755 332.328 133.065 C 329.618 132.686,324.430 131.928,320.800 131.380 C 317.170 130.833,312.850 130.195,311.200 129.963 C 309.550 129.731,307.120 129.376,305.800 129.173 C 304.480 128.970,302.230 128.630,300.800 128.418 C 299.370 128.205,297.030 127.856,295.600 127.642 C 294.170 127.428,291.650 127.054,290.000 126.810 C 282.428 125.693,281.265 125.519,279.200 125.200 C 277.051 124.868,274.164 124.437,268.300 123.573 C 266.705 123.338,264.320 122.984,263.000 122.786 C 261.680 122.588,259.250 122.227,257.600 121.984 C 255.950 121.740,253.610 121.387,252.400 121.200 C 251.190 121.013,248.850 120.660,247.200 120.416 C 245.550 120.173,243.120 119.812,241.800 119.614 C 240.480 119.416,238.140 119.069,236.600 118.843 C 235.060 118.616,232.630 118.250,231.200 118.029 C 229.770 117.807,227.340 117.450,225.800 117.236 C 224.260 117.021,219.850 116.372,216.000 115.794 C 207.336 114.493,204.685 114.228,204.300 114.625 M331.796 164.407 C 331.658 164.630,331.377 164.709,331.172 164.582 C 330.966 164.456,330.624 164.810,330.411 165.371 C 330.066 166.278,329.907 166.345,328.956 165.983 C 327.809 165.547,327.078 165.830,327.954 166.372 C 328.326 166.602,328.353 166.782,328.043 166.974 C 327.428 167.353,327.483 168.113,328.100 167.765 C 328.500 167.539,328.500 167.590,328.100 168.021 C 327.825 168.318,327.600 169.538,327.600 170.733 C 327.600 172.301,327.403 173.086,326.892 173.553 C 325.424 174.895,324.609 182.223,325.578 185.372 C 325.786 186.047,326.177 187.950,326.449 189.600 C 326.720 191.250,327.270 193.380,327.671 194.333 C 328.485 196.268,328.737 204.144,328.000 204.600 C 327.748 204.756,327.600 209.265,327.600 216.805 C 327.600 228.151,327.373 230.800,326.399 230.800 C 326.152 230.800,325.742 239.523,325.356 253.000 C 325.274 255.860,325.086 268.235,324.938 280.500 C 324.779 293.704,324.518 302.800,324.299 302.800 C 323.893 302.800,324.116 306.454,324.678 309.000 C 324.948 310.224,325.200 310.571,325.751 310.474 C 326.305 310.378,326.413 310.530,326.219 311.139 C 325.979 311.897,326.135 311.922,330.075 311.776 C 338.762 311.454,341.980 309.497,343.267 303.754 C 343.958 300.669,343.979 280.523,343.294 276.800 C 342.960 274.982,342.810 267.103,342.796 250.600 C 342.780 232.138,342.645 225.955,342.176 222.200 C 341.533 217.049,340.919 199.155,341.331 197.563 C 341.468 197.033,342.259 196.150,343.090 195.601 C 345.740 193.847,345.600 194.492,345.600 184.000 C 345.600 173.332,345.740 173.909,342.800 172.490 C 341.284 171.758,340.819 171.236,339.851 169.178 C 337.995 165.232,333.084 162.323,331.796 164.407 M93.260 221.980 C 93.348 222.244,93.550 222.447,93.710 222.430 C 94.188 222.381,94.096 221.832,93.580 221.660 C 93.316 221.572,93.172 221.716,93.260 221.980 M92.652 224.100 C 92.227 225.688,92.370 226.800,93.000 226.800 C 93.444 226.800,93.600 226.333,93.600 225.000 C 93.600 223.098,93.058 222.584,92.652 224.100 " stroke="none" fill="#ddab1b" fill-rule="evenodd"></path><path id="path1" d="M195.606 85.900 C 195.602 86.260,194.650 86.400,192.200 86.400 C 190.200 86.400,188.800 86.565,188.800 86.800 C 188.800 87.029,187.592 87.200,185.976 87.200 C 184.196 87.200,183.244 87.348,183.400 87.600 C 183.619 87.954,182.496 88.117,179.900 88.107 C 179.515 88.105,179.200 88.261,179.200 88.452 C 179.200 88.643,178.491 88.800,177.624 88.800 C 176.757 88.800,175.936 88.980,175.800 89.200 C 175.664 89.420,174.663 89.600,173.576 89.600 C 172.489 89.600,171.600 89.780,171.600 90.000 C 171.600 90.220,170.801 90.400,169.824 90.400 C 168.847 90.400,167.936 90.580,167.800 90.800 C 167.664 91.020,166.909 91.200,166.123 91.200 C 164.191 91.200,159.600 92.067,159.600 92.431 C 159.600 92.592,158.862 92.625,157.960 92.504 C 156.841 92.354,156.216 92.450,155.996 92.806 C 155.798 93.126,154.927 93.316,153.737 93.298 C 152.672 93.282,151.580 93.451,151.312 93.674 C 151.043 93.896,150.143 94.090,149.312 94.103 C 148.480 94.117,147.596 94.284,147.346 94.475 C 147.097 94.665,146.197 94.844,145.346 94.872 C 144.496 94.901,143.705 95.066,143.590 95.240 C 143.474 95.415,142.574 95.600,141.590 95.653 C 140.605 95.705,139.701 95.892,139.580 96.068 C 139.459 96.244,138.522 96.419,137.496 96.458 C 136.471 96.497,135.726 96.680,135.840 96.864 C 136.022 97.159,133.473 97.408,132.100 97.230 C 131.825 97.194,131.600 97.353,131.600 97.582 C 131.600 97.817,130.723 98.000,129.600 98.000 C 128.500 98.000,127.600 98.180,127.600 98.400 C 127.600 98.620,126.790 98.800,125.800 98.800 C 124.810 98.800,124.000 98.980,124.000 99.200 C 124.000 99.420,123.100 99.600,122.000 99.600 C 120.900 99.600,120.000 99.780,120.000 100.000 C 120.000 100.220,119.100 100.400,118.000 100.400 C 116.900 100.400,116.000 100.580,116.000 100.800 C 116.000 101.020,115.100 101.200,114.000 101.200 C 112.900 101.200,112.000 101.380,112.000 101.600 C 112.000 101.820,111.010 102.000,109.800 102.000 C 108.590 102.000,107.600 102.180,107.600 102.400 C 107.600 102.620,106.700 102.800,105.600 102.800 C 104.500 102.800,103.600 102.980,103.600 103.200 C 103.600 103.420,102.700 103.600,101.600 103.600 C 100.500 103.600,99.600 103.780,99.600 104.000 C 99.600 104.220,98.700 104.400,97.600 104.400 C 96.500 104.400,95.600 104.580,95.600 104.800 C 95.600 105.020,94.790 105.200,93.800 105.200 C 92.810 105.200,92.000 105.380,92.000 105.600 C 92.000 105.820,91.201 106.000,90.224 106.000 C 89.247 106.000,88.336 106.180,88.200 106.400 C 88.064 106.620,87.063 106.800,85.976 106.800 C 84.889 106.800,84.000 106.980,84.000 107.200 C 84.000 107.420,83.100 107.600,82.000 107.600 C 80.900 107.600,80.000 107.759,80.000 107.952 C 80.000 108.146,78.290 108.433,76.200 108.590 C 74.110 108.746,72.400 109.038,72.400 109.237 C 72.400 109.437,71.500 109.600,70.400 109.600 C 69.300 109.600,68.400 109.780,68.400 110.000 C 68.400 110.220,67.421 110.400,66.224 110.400 C 65.027 110.400,63.936 110.580,63.800 110.800 C 63.664 111.020,62.753 111.200,61.776 111.200 C 60.799 111.200,60.000 111.380,60.000 111.600 C 60.000 111.820,59.100 112.000,58.000 112.000 C 56.900 112.000,56.000 112.180,56.000 112.400 C 56.000 112.620,55.100 112.800,54.000 112.800 C 52.900 112.800,52.000 112.980,52.000 113.200 C 52.000 113.420,51.100 113.600,50.000 113.600 C 48.900 113.600,48.000 113.780,48.000 114.000 C 48.000 114.220,47.100 114.400,46.000 114.400 C 44.900 114.400,44.000 114.580,44.000 114.800 C 44.000 115.020,43.190 115.200,42.200 115.200 C 41.210 115.200,40.400 115.380,40.400 115.600 C 40.400 115.820,39.500 116.000,38.400 116.000 C 37.300 116.000,36.400 116.180,36.400 116.400 C 36.400 116.620,35.500 116.800,34.400 116.800 C 33.300 116.800,32.400 116.980,32.400 117.200 C 32.400 117.420,31.500 117.600,30.400 117.600 C 29.300 117.600,28.400 117.780,28.400 118.000 C 28.400 118.220,27.410 118.400,26.200 118.400 C 24.990 118.400,24.000 118.580,24.000 118.800 C 24.000 119.020,23.100 119.200,22.000 119.200 C 20.900 119.200,20.000 119.380,20.000 119.600 C 20.000 119.820,19.100 120.000,18.000 120.000 C 16.900 120.000,16.000 120.180,16.000 120.400 C 16.000 120.620,15.100 120.800,14.000 120.800 C 12.900 120.800,12.000 120.980,12.000 121.200 C 12.000 121.420,11.190 121.600,10.200 121.600 C 9.210 121.600,8.400 121.780,8.400 122.000 C 8.400 122.220,7.781 122.400,7.024 122.400 C 6.267 122.400,5.536 122.580,5.400 122.800 C 5.264 123.020,4.623 123.200,3.976 123.200 C 3.329 123.200,2.800 123.380,2.800 123.600 C 2.800 123.820,2.517 124.000,2.171 124.000 C 1.090 124.000,0.400 125.079,0.400 126.771 C 0.400 127.980,0.561 128.400,1.024 128.400 C 1.367 128.400,1.536 128.580,1.400 128.800 C 1.264 129.020,1.523 129.200,1.976 129.200 C 2.429 129.200,2.800 129.380,2.800 129.600 C 2.800 129.820,3.340 130.000,4.000 130.000 C 4.660 130.000,5.200 130.180,5.200 130.400 C 5.200 130.620,5.999 130.800,6.976 130.800 C 7.953 130.800,8.864 130.980,9.000 131.200 C 9.136 131.420,10.047 131.600,11.024 131.600 C 12.001 131.600,12.800 131.780,12.800 132.000 C 12.800 132.220,13.700 132.400,14.800 132.400 C 15.900 132.400,16.800 132.580,16.800 132.800 C 16.800 133.020,17.700 133.200,18.800 133.200 C 19.900 133.200,20.800 133.380,20.800 133.600 C 20.800 133.820,21.700 134.000,22.800 134.000 C 23.900 134.000,24.800 134.180,24.800 134.400 C 24.800 134.620,25.610 134.800,26.600 134.800 C 27.590 134.800,28.400 134.980,28.400 135.200 C 28.400 135.420,29.300 135.600,30.400 135.600 C 31.500 135.600,32.400 135.780,32.400 136.000 C 32.400 136.220,33.300 136.400,34.400 136.400 C 35.500 136.400,36.400 136.580,36.400 136.800 C 36.400 137.020,37.300 137.200,38.400 137.200 C 39.500 137.200,40.400 137.380,40.400 137.600 C 40.400 137.820,41.199 138.000,42.176 138.000 C 43.153 138.000,44.064 138.180,44.200 138.400 C 44.336 138.620,45.247 138.800,46.224 138.800 C 47.201 138.800,48.000 138.980,48.000 139.200 C 48.000 139.420,48.900 139.600,50.000 139.600 C 51.100 139.600,52.000 139.780,52.000 140.000 C 52.000 140.220,52.889 140.400,53.976 140.400 C 55.063 140.400,56.056 140.567,56.182 140.770 C 56.308 140.974,58.028 141.267,60.005 141.422 C 61.982 141.577,63.600 141.860,63.600 142.052 C 63.600 142.243,64.500 142.400,65.600 142.400 C 66.700 142.400,67.600 142.580,67.600 142.800 C 67.600 143.020,68.500 143.200,69.600 143.200 C 70.700 143.200,71.600 143.380,71.600 143.600 C 71.600 143.820,72.500 144.000,73.600 144.000 C 74.700 144.000,75.600 144.180,75.600 144.400 C 75.600 144.620,76.410 144.800,77.400 144.800 C 78.390 144.800,79.200 144.980,79.200 145.200 C 79.200 145.420,80.100 145.600,81.200 145.600 C 82.300 145.600,83.200 145.780,83.200 146.000 C 83.200 146.220,84.100 146.400,85.200 146.400 C 86.300 146.400,87.200 146.580,87.200 146.800 C 87.200 147.020,88.100 147.200,89.200 147.200 C 90.300 147.200,91.200 147.380,91.200 147.600 C 91.200 147.820,91.999 148.000,92.976 148.000 C 93.953 148.000,94.864 148.180,95.000 148.400 C 95.136 148.620,96.047 148.800,97.024 148.800 C 98.001 148.800,98.800 148.980,98.800 149.200 C 98.800 149.420,99.700 149.600,100.800 149.600 C 101.900 149.600,102.800 149.780,102.800 150.000 C 102.800 150.220,103.321 150.400,103.957 150.400 C 104.643 150.400,105.213 150.658,105.357 151.033 C 105.720 151.977,105.661 152.109,104.991 151.852 C 104.470 151.652,104.409 152.027,104.572 154.429 C 104.719 156.589,104.635 157.288,104.208 157.452 C 103.809 157.605,103.675 158.327,103.730 160.027 C 103.781 161.615,103.641 162.452,103.303 162.582 C 103.000 162.698,102.800 163.505,102.800 164.611 C 102.800 165.621,102.659 166.360,102.486 166.253 C 102.313 166.146,102.171 166.396,102.171 166.807 C 102.171 167.338,102.309 167.441,102.644 167.163 C 102.988 166.878,103.101 167.039,103.059 167.751 C 103.019 168.421,102.859 168.615,102.556 168.363 C 102.238 168.100,102.128 168.623,102.170 170.197 C 102.209 171.662,102.070 172.400,101.754 172.400 C 101.450 172.400,101.301 173.045,101.340 174.200 C 101.373 175.191,101.282 176.001,101.137 176.000 C 100.671 176.000,101.277 177.600,101.747 177.609 C 101.996 177.614,101.750 177.991,101.200 178.446 C 100.363 179.139,100.330 179.236,101.000 179.036 C 101.775 178.806,101.776 178.816,101.049 179.381 C 100.572 179.750,100.375 180.263,100.511 180.782 C 100.642 181.281,100.532 181.600,100.229 181.600 C 99.930 181.600,99.733 182.149,99.733 182.982 C 99.733 183.743,99.871 184.280,100.039 184.176 C 100.207 184.072,100.458 184.170,100.596 184.393 C 100.734 184.617,100.546 184.800,100.178 184.800 C 99.664 184.800,99.550 185.075,99.683 185.984 C 99.806 186.826,99.675 187.218,99.228 187.338 C 98.805 187.452,98.871 187.522,99.433 187.554 C 99.895 187.579,100.267 187.873,100.267 188.213 C 100.267 188.635,100.138 188.698,99.853 188.413 C 99.276 187.836,98.933 187.898,98.933 188.582 C 98.933 188.903,99.128 189.048,99.367 188.906 C 99.647 188.738,99.639 188.850,99.345 189.223 C 99.094 189.540,98.941 190.416,99.004 191.170 C 99.069 191.950,98.878 192.779,98.560 193.097 C 98.133 193.525,98.105 193.848,98.441 194.476 C 98.760 195.072,98.760 195.222,98.440 195.025 C 98.174 194.861,98.000 195.079,98.000 195.576 C 98.000 196.029,97.820 196.400,97.600 196.400 C 97.380 196.400,97.200 196.574,97.200 196.787 C 97.200 197.001,97.452 197.078,97.760 196.960 C 98.067 196.842,98.438 196.938,98.583 197.173 C 98.728 197.408,98.657 197.600,98.424 197.600 C 98.191 197.600,98.000 197.870,98.000 198.200 C 98.000 198.530,97.859 198.800,97.686 198.800 C 97.241 198.800,97.254 202.148,97.699 202.444 C 97.902 202.579,97.773 202.802,97.413 202.940 C 97.053 203.078,96.861 203.025,96.986 202.823 C 97.111 202.621,97.075 202.370,96.905 202.265 C 96.736 202.161,96.573 203.137,96.542 204.435 C 96.510 205.733,96.601 206.723,96.743 206.636 C 96.884 206.548,97.000 206.892,97.000 207.400 C 97.000 207.908,96.834 208.221,96.632 208.096 C 96.429 207.971,96.381 208.174,96.525 208.550 C 96.684 208.964,96.564 209.316,96.219 209.448 C 95.812 209.604,95.707 210.118,95.846 211.274 C 95.995 212.511,95.874 213.006,95.320 213.416 C 94.631 213.927,94.635 213.978,95.400 214.581 C 95.894 214.970,95.979 215.171,95.624 215.106 C 95.307 215.048,94.975 215.336,94.885 215.747 C 94.768 216.288,94.872 216.405,95.262 216.171 C 95.700 215.907,95.698 215.972,95.251 216.523 C 94.910 216.943,94.868 217.200,95.138 217.200 C 95.687 217.200,95.243 218.455,94.496 219.016 C 94.127 219.293,94.033 219.792,94.215 220.516 L 94.487 221.600 105.043 221.600 C 111.814 221.600,115.600 221.457,115.600 221.200 C 115.600 220.659,135.374 220.661,142.400 221.203 C 145.370 221.432,153.830 221.987,161.200 222.436 C 168.570 222.886,176.220 223.434,178.200 223.654 C 188.416 224.789,192.688 225.385,195.200 226.024 C 196.190 226.276,197.942 226.570,199.093 226.678 C 200.614 226.820,201.434 227.135,202.093 227.830 C 202.837 228.614,203.403 228.787,205.238 228.793 C 206.914 228.798,207.647 228.989,208.156 229.552 C 208.531 229.965,209.558 230.419,210.439 230.560 C 212.260 230.851,214.639 232.296,215.756 233.789 C 216.753 235.122,217.160 235.068,218.690 233.400 C 220.148 231.812,220.642 231.673,220.986 232.756 C 221.148 233.265,220.859 233.887,220.103 234.656 C 219.486 235.285,218.509 236.413,217.932 237.161 L 216.884 238.522 216.257 237.310 C 214.862 234.612,208.665 231.705,201.400 230.339 C 193.187 228.796,189.802 228.382,175.800 227.212 C 167.774 226.541,119.873 225.782,119.693 226.322 C 119.574 226.679,116.250 226.800,106.523 226.800 L 93.513 226.800 93.764 227.800 C 93.941 228.505,93.852 228.800,93.463 228.800 C 93.085 228.800,92.966 228.454,93.087 227.700 C 93.224 226.840,93.170 226.731,92.837 227.200 C 92.167 228.146,92.285 230.667,93.000 230.667 C 93.330 230.667,93.600 230.521,93.600 230.343 C 93.600 230.165,94.020 230.180,94.534 230.375 C 95.812 230.861,109.332 230.938,109.035 230.457 C 108.908 230.252,109.088 229.975,109.435 229.842 C 110.486 229.439,122.871 229.561,122.617 229.972 C 122.491 230.177,122.598 230.475,122.855 230.634 C 123.169 230.828,123.216 230.749,122.996 230.394 C 122.756 230.006,122.853 229.935,123.355 230.127 C 123.763 230.284,123.942 230.230,123.797 229.995 C 123.640 229.741,125.782 229.600,129.789 229.600 C 134.963 229.600,136.064 229.702,136.255 230.200 C 136.382 230.530,136.657 230.800,136.866 230.800 C 137.076 230.800,137.112 230.575,136.947 230.300 C 136.708 229.903,136.771 229.901,137.254 230.291 C 137.706 230.658,141.215 230.784,151.005 230.788 C 158.234 230.791,164.250 230.947,164.374 231.135 C 164.498 231.323,167.210 231.516,170.400 231.566 C 173.590 231.615,176.260 231.823,176.333 232.028 C 176.407 232.232,178.342 232.400,180.633 232.400 C 183.144 232.400,184.800 232.559,184.800 232.800 C 184.800 233.033,186.133 233.200,188.000 233.200 C 189.867 233.200,191.200 233.367,191.200 233.600 C 191.200 233.820,192.190 234.000,193.400 234.000 C 194.610 234.000,195.600 234.180,195.600 234.400 C 195.600 234.620,196.500 234.800,197.600 234.800 C 198.700 234.800,199.600 234.980,199.600 235.200 C 199.600 235.420,200.500 235.600,201.600 235.600 C 202.700 235.600,203.600 235.780,203.600 236.000 C 203.600 236.220,204.140 236.400,204.800 236.400 C 205.460 236.400,206.000 236.580,206.000 236.800 C 206.000 237.020,206.540 237.200,207.200 237.200 C 207.860 237.200,208.400 237.380,208.400 237.600 C 208.400 237.820,208.760 238.000,209.200 238.000 C 209.640 238.000,210.000 238.180,210.000 238.400 C 210.000 238.620,210.359 238.800,210.797 238.800 C 211.981 238.800,216.000 242.323,216.000 243.360 C 216.000 243.712,216.283 244.000,216.629 244.000 C 217.394 244.000,218.400 243.052,218.401 242.329 C 218.402 242.038,218.941 241.440,219.600 241.000 C 220.259 240.560,220.798 240.065,220.799 239.900 C 220.799 239.735,221.042 239.600,221.338 239.600 C 221.634 239.600,222.202 239.240,222.600 238.800 C 222.998 238.360,223.566 238.000,223.862 238.000 C 224.158 238.000,224.400 237.820,224.400 237.600 C 224.400 237.380,224.760 237.200,225.200 237.200 C 225.640 237.200,226.000 237.020,226.000 236.800 C 226.000 236.580,226.540 236.400,227.200 236.400 C 227.860 236.400,228.400 236.220,228.400 236.000 C 228.400 235.780,228.940 235.600,229.600 235.600 C 230.260 235.600,230.800 235.420,230.800 235.200 C 230.800 234.980,231.520 234.800,232.400 234.800 C 233.280 234.800,234.000 234.620,234.000 234.400 C 234.000 234.180,234.720 234.000,235.600 234.000 C 236.480 234.000,237.200 233.820,237.200 233.600 C 237.200 233.380,238.190 233.200,239.400 233.200 C 240.610 233.200,241.600 233.020,241.600 232.800 C 241.600 232.578,242.667 232.400,244.000 232.400 C 245.333 232.400,246.400 232.222,246.400 232.000 C 246.400 231.763,247.867 231.600,250.000 231.600 C 252.133 231.600,253.600 231.437,253.600 231.200 C 253.600 230.955,255.533 230.800,258.600 230.800 C 261.667 230.800,263.600 230.645,263.600 230.400 C 263.600 230.137,273.800 230.000,293.400 230.000 C 314.131 230.000,323.200 230.129,323.200 230.424 C 323.200 230.670,323.832 230.796,324.700 230.724 L 326.200 230.600 326.452 224.600 C 327.083 209.577,327.315 194.000,326.907 194.000 C 326.409 194.000,326.140 192.498,325.581 186.600 C 325.352 184.180,324.902 181.150,324.582 179.868 C 324.262 178.585,324.000 177.100,324.000 176.568 C 324.000 176.035,323.820 175.600,323.600 175.600 C 323.380 175.600,323.200 174.880,323.200 174.000 C 323.200 173.120,323.020 172.400,322.800 172.400 C 322.580 172.400,322.400 171.680,322.400 170.800 C 322.400 169.920,322.220 169.200,322.000 169.200 C 321.780 169.200,321.600 168.480,321.600 167.600 C 321.600 166.720,321.420 166.000,321.200 166.000 C 320.980 166.000,320.800 165.280,320.800 164.400 C 320.800 163.520,320.620 162.800,320.400 162.800 C 320.180 162.800,320.000 162.181,320.000 161.424 C 320.000 160.667,319.820 159.936,319.600 159.800 C 319.380 159.664,319.200 158.933,319.200 158.176 C 319.200 157.419,319.020 156.800,318.800 156.800 C 318.580 156.800,318.400 156.080,318.400 155.200 C 318.400 154.320,318.220 153.600,318.000 153.600 C 317.780 153.600,317.600 152.880,317.600 152.000 C 317.600 151.120,317.420 150.400,317.200 150.400 C 316.980 150.400,316.800 149.680,316.800 148.800 C 316.800 147.920,316.620 147.200,316.400 147.200 C 316.180 147.200,316.000 146.495,316.000 145.633 C 316.000 144.742,315.786 143.995,315.504 143.901 C 314.528 143.576,316.304 142.400,317.771 142.400 C 318.557 142.400,319.200 142.238,319.200 142.039 C 319.200 141.841,320.280 141.553,321.601 141.400 C 322.921 141.247,324.102 140.959,324.224 140.761 C 324.347 140.562,324.977 140.400,325.624 140.400 C 326.271 140.400,326.800 140.220,326.800 140.000 C 326.800 139.780,327.520 139.600,328.400 139.600 C 331.051 139.600,330.069 138.095,327.079 137.575 C 326.155 137.414,321.620 136.623,317.000 135.816 C 312.380 135.009,307.520 134.188,306.200 133.992 C 304.880 133.796,302.630 133.439,301.200 133.200 C 297.732 132.620,293.889 132.005,291.200 131.600 C 289.990 131.418,287.740 131.065,286.200 130.816 C 284.660 130.568,282.230 130.186,280.800 129.969 C 279.370 129.752,277.120 129.391,275.800 129.167 C 274.480 128.943,272.410 128.671,271.200 128.562 C 269.990 128.453,268.640 128.201,268.200 128.001 C 267.760 127.802,266.500 127.550,265.400 127.441 C 259.184 126.827,258.166 126.681,257.820 126.357 C 257.611 126.160,256.432 126.000,255.200 126.000 C 253.968 126.000,252.789 125.836,252.580 125.635 C 252.225 125.294,251.050 125.127,245.000 124.558 C 243.680 124.434,242.429 124.168,242.220 123.966 C 242.011 123.765,240.742 123.600,239.400 123.600 C 238.058 123.600,236.789 123.440,236.580 123.243 C 236.371 123.047,235.120 122.780,233.800 122.650 C 232.480 122.520,230.230 122.236,228.800 122.020 C 226.271 121.638,224.009 121.321,217.400 120.425 C 203.929 118.598,203.200 118.369,203.200 115.952 C 203.200 113.128,204.055 113.085,217.900 115.216 C 219.385 115.444,221.770 115.797,223.200 116.000 C 224.630 116.203,227.060 116.563,228.600 116.800 C 231.427 117.235,234.918 117.758,239.500 118.432 C 240.875 118.634,243.170 118.980,244.600 119.200 C 246.030 119.420,248.325 119.766,249.700 119.968 C 251.075 120.170,253.550 120.545,255.200 120.800 C 261.435 121.765,263.469 122.044,265.800 122.252 C 267.120 122.371,268.371 122.632,268.580 122.834 C 268.789 123.035,270.083 123.200,271.456 123.200 C 272.829 123.200,274.064 123.380,274.200 123.600 C 274.336 123.820,275.416 124.000,276.600 124.000 C 277.784 124.000,278.864 124.180,279.000 124.400 C 279.136 124.620,280.306 124.800,281.600 124.800 C 282.894 124.800,284.064 124.980,284.200 125.200 C 284.336 125.420,285.571 125.600,286.944 125.600 C 288.317 125.600,289.611 125.765,289.820 125.966 C 290.029 126.168,291.280 126.429,292.600 126.548 C 293.920 126.666,296.170 126.944,297.600 127.166 C 299.030 127.387,300.920 127.668,301.800 127.790 C 303.727 128.056,307.818 128.653,311.500 129.204 C 313.852 129.557,317.633 130.097,331.200 132.023 C 336.491 132.773,336.973 132.864,337.693 133.250 C 338.082 133.458,338.400 133.967,338.400 134.381 C 338.400 135.742,338.871 136.400,339.843 136.400 C 340.369 136.400,340.800 136.220,340.800 136.000 C 340.800 135.780,341.340 135.600,342.000 135.600 C 342.660 135.600,343.200 135.420,343.200 135.200 C 343.200 134.980,343.920 134.800,344.800 134.800 C 345.680 134.800,346.400 134.620,346.400 134.400 C 346.400 134.180,346.940 134.000,347.600 134.000 C 348.260 134.000,348.800 133.820,348.800 133.600 C 348.800 133.380,349.520 133.200,350.400 133.200 C 351.280 133.200,352.000 133.020,352.000 132.800 C 352.000 132.580,352.540 132.400,353.200 132.400 C 353.860 132.400,354.400 132.220,354.400 132.000 C 354.400 131.780,355.030 131.600,355.800 131.600 C 356.570 131.600,357.200 131.420,357.200 131.200 C 357.200 130.980,357.740 130.800,358.400 130.800 C 359.060 130.800,359.600 130.620,359.600 130.400 C 359.600 130.180,360.320 130.000,361.200 130.000 C 362.080 130.000,362.800 129.820,362.800 129.600 C 362.800 129.380,363.340 129.200,364.000 129.200 C 364.660 129.200,365.200 129.020,365.200 128.800 C 365.200 128.580,365.920 128.400,366.800 128.400 C 367.680 128.400,368.400 128.220,368.400 128.000 C 368.400 127.780,368.940 127.600,369.600 127.600 C 370.260 127.600,370.800 127.420,370.800 127.200 C 370.800 126.980,371.419 126.800,372.176 126.800 C 372.933 126.800,373.664 126.620,373.800 126.400 C 373.936 126.180,374.487 126.000,375.024 126.000 C 375.561 126.000,376.000 125.820,376.000 125.600 C 376.000 125.380,376.609 125.200,377.354 125.200 C 378.099 125.200,379.674 124.916,380.854 124.569 C 382.034 124.222,383.720 123.754,384.600 123.530 C 385.480 123.306,386.513 122.960,386.895 122.761 C 387.277 122.562,388.132 122.400,388.795 122.400 C 389.458 122.400,390.000 122.220,390.000 122.000 C 390.000 121.780,390.540 121.600,391.200 121.600 C 391.860 121.600,392.400 121.420,392.400 121.200 C 392.400 120.980,392.940 120.800,393.600 120.800 C 394.260 120.800,394.800 120.620,394.800 120.400 C 394.800 120.180,395.340 120.000,396.000 120.000 C 396.660 120.000,397.200 119.820,397.200 119.600 C 397.200 119.380,397.494 119.200,397.853 119.200 C 399.163 119.200,400.000 117.616,400.000 115.139 C 400.000 113.327,399.865 112.800,399.400 112.800 C 399.070 112.800,398.800 112.620,398.800 112.400 C 398.800 112.180,398.260 112.000,397.600 112.000 C 396.940 112.000,396.400 111.820,396.400 111.600 C 396.400 111.378,395.333 111.200,394.000 111.200 C 392.667 111.200,391.600 111.022,391.600 110.800 C 391.600 110.575,390.475 110.400,389.024 110.400 C 387.607 110.400,386.331 110.212,386.189 109.982 C 386.047 109.752,385.090 109.602,384.064 109.649 C 383.038 109.696,381.838 109.545,381.399 109.314 C 380.959 109.082,378.440 108.764,375.800 108.607 C 373.160 108.450,370.940 108.159,370.867 107.961 C 370.793 107.762,369.488 107.600,367.967 107.600 C 366.389 107.600,365.200 107.428,365.200 107.200 C 365.200 106.971,364.000 106.800,362.400 106.800 C 360.800 106.800,359.600 106.629,359.600 106.400 C 359.600 106.174,358.467 106.000,357.000 106.000 C 355.533 106.000,354.400 105.826,354.400 105.600 C 354.400 105.372,353.208 105.200,351.624 105.200 C 350.097 105.200,348.736 105.020,348.600 104.800 C 348.464 104.580,347.193 104.400,345.776 104.400 C 344.325 104.400,343.200 104.225,343.200 104.000 C 343.200 103.780,342.210 103.600,341.000 103.600 C 339.790 103.600,338.800 103.420,338.800 103.200 C 338.800 102.971,337.600 102.800,336.000 102.800 C 334.400 102.800,333.200 102.629,333.200 102.400 C 333.200 102.171,332.000 102.000,330.400 102.000 C 328.800 102.000,327.600 101.829,327.600 101.600 C 327.600 101.374,326.467 101.200,325.000 101.200 C 323.570 101.200,322.400 101.048,322.400 100.863 C 322.400 100.678,321.185 100.488,319.700 100.441 C 318.215 100.394,316.940 100.186,316.867 99.978 C 316.793 99.770,315.488 99.600,313.967 99.600 C 312.389 99.600,311.200 99.428,311.200 99.200 C 311.200 98.974,310.067 98.800,308.600 98.800 C 307.170 98.800,306.000 98.651,306.000 98.468 C 306.000 98.286,304.965 98.096,303.700 98.046 C 302.435 97.996,301.340 97.785,301.267 97.578 C 301.193 97.370,299.888 97.200,298.367 97.200 C 296.789 97.200,295.600 97.028,295.600 96.800 C 295.600 96.575,294.475 96.400,293.024 96.400 C 291.607 96.400,290.353 96.247,290.237 96.060 C 290.122 95.873,288.903 95.687,287.528 95.646 C 286.154 95.604,284.933 95.420,284.815 95.236 C 284.697 95.052,283.440 94.877,282.021 94.847 C 280.603 94.817,279.343 94.637,279.221 94.448 C 279.100 94.258,277.939 94.080,276.642 94.052 C 275.345 94.024,274.085 93.845,273.842 93.654 C 273.599 93.464,272.252 93.302,270.849 93.295 C 269.250 93.287,268.183 93.096,267.989 92.782 C 267.770 92.428,266.965 92.346,265.240 92.503 C 263.898 92.625,262.800 92.592,262.800 92.431 C 262.800 92.053,257.163 91.194,254.700 91.197 C 253.560 91.199,252.800 91.020,252.800 90.751 C 252.800 90.458,252.564 90.493,252.123 90.851 C 251.663 91.224,251.543 91.240,251.747 90.900 C 251.974 90.522,251.456 90.400,249.624 90.400 C 248.275 90.400,247.200 90.223,247.200 90.000 C 247.200 89.772,246.008 89.600,244.424 89.600 C 242.897 89.600,241.536 89.420,241.400 89.200 C 241.264 88.980,239.983 88.800,238.553 88.800 C 237.071 88.800,236.051 88.642,236.180 88.432 C 236.307 88.227,235.117 87.964,233.504 87.840 C 226.853 87.327,225.200 87.113,225.200 86.766 C 225.200 86.565,223.850 86.400,222.200 86.400 C 220.550 86.400,219.200 86.231,219.200 86.024 C 219.200 85.798,214.654 85.648,207.800 85.648 C 199.267 85.649,196.398 85.769,196.394 86.125 C 196.390 86.409,196.232 86.359,196.000 86.000 C 195.742 85.600,195.610 85.567,195.606 85.900 M221.000 90.365 C 222.540 90.593,224.970 90.958,226.400 91.177 C 227.830 91.397,230.260 91.763,231.800 91.992 C 233.340 92.221,235.680 92.573,237.000 92.774 C 238.320 92.975,240.705 93.334,242.300 93.570 C 243.895 93.807,246.505 94.193,248.100 94.430 C 249.695 94.666,251.990 95.015,253.200 95.204 C 254.410 95.393,256.840 95.752,258.600 96.000 C 260.360 96.248,262.790 96.607,264.000 96.796 C 265.210 96.985,267.460 97.327,269.000 97.555 C 270.540 97.783,273.060 98.162,274.600 98.397 C 278.723 99.027,281.829 99.493,285.200 99.987 C 286.850 100.229,289.280 100.595,290.600 100.801 C 291.920 101.007,294.170 101.346,295.600 101.556 C 298.140 101.927,301.977 102.511,306.400 103.200 C 307.610 103.388,311.120 103.910,314.200 104.359 C 317.280 104.809,321.330 105.432,323.200 105.744 C 325.070 106.056,328.040 106.520,329.800 106.776 C 331.560 107.032,333.990 107.403,335.200 107.600 C 336.410 107.797,338.840 108.161,340.600 108.407 C 342.360 108.653,344.160 108.943,344.600 109.050 C 345.363 109.237,346.679 109.453,353.000 110.428 C 354.540 110.665,356.880 111.036,358.200 111.252 C 359.520 111.468,361.635 111.740,362.900 111.858 C 364.165 111.975,365.200 112.226,365.200 112.416 C 365.200 112.606,366.325 112.838,367.700 112.932 C 369.075 113.025,365.070 113.042,358.800 112.969 C 352.530 112.896,345.960 112.633,344.200 112.385 C 342.440 112.137,339.650 111.764,338.000 111.556 C 336.350 111.348,333.830 111.015,332.400 110.817 C 330.970 110.619,328.270 110.266,326.400 110.032 C 324.530 109.799,321.695 109.426,320.100 109.204 C 318.505 108.982,315.985 108.635,314.500 108.434 C 313.015 108.233,311.260 107.971,310.600 107.852 C 309.940 107.733,307.960 107.447,306.200 107.217 C 299.397 106.329,282.084 103.963,279.800 103.610 C 278.480 103.405,275.870 103.037,274.000 102.791 C 272.130 102.545,269.610 102.186,268.400 101.993 C 267.190 101.799,264.760 101.445,263.000 101.206 C 261.240 100.967,258.585 100.598,257.100 100.386 C 255.615 100.174,253.185 99.826,251.700 99.614 C 248.613 99.173,244.976 98.673,238.400 97.784 C 235.870 97.443,232.720 97.000,231.400 96.800 C 230.080 96.601,227.470 96.237,225.600 95.992 C 223.730 95.747,221.225 95.378,220.033 95.173 C 212.621 93.897,193.611 94.829,181.600 97.058 C 177.530 97.813,172.220 98.798,169.800 99.246 C 164.282 100.268,157.951 101.480,155.600 101.964 C 154.610 102.168,152.720 102.529,151.400 102.766 C 150.080 103.003,147.650 103.458,146.000 103.777 C 144.350 104.096,139.040 105.084,134.200 105.972 C 129.360 106.860,124.410 107.786,123.200 108.029 C 120.437 108.585,118.115 109.016,114.800 109.588 C 113.370 109.835,111.255 110.208,110.100 110.418 C 108.945 110.628,107.055 110.970,105.900 111.177 C 104.745 111.384,102.810 111.742,101.600 111.972 C 97.182 112.812,92.062 113.192,86.000 113.129 C 82.590 113.094,80.520 112.994,81.400 112.906 C 82.280 112.818,83.171 112.579,83.380 112.373 C 83.589 112.168,84.408 112.000,85.200 112.000 C 85.992 112.000,86.811 111.838,87.020 111.641 C 87.229 111.444,88.120 111.180,89.000 111.056 C 92.926 110.503,93.849 110.329,94.600 110.002 C 95.040 109.811,95.940 109.560,96.600 109.445 C 97.260 109.330,98.610 109.064,99.600 108.855 C 100.590 108.645,102.480 108.261,103.800 108.000 C 108.514 107.069,109.428 106.881,111.600 106.400 C 112.810 106.132,114.520 105.774,115.400 105.604 C 116.280 105.435,120.600 104.556,125.000 103.653 C 141.422 100.279,145.050 99.537,147.000 99.153 C 150.354 98.492,152.515 98.055,154.400 97.655 C 155.390 97.446,157.280 97.061,158.600 96.800 C 159.920 96.539,161.810 96.155,162.800 95.947 C 163.790 95.738,165.500 95.395,166.600 95.184 C 167.700 94.973,169.500 94.612,170.600 94.382 C 171.700 94.152,173.500 93.786,174.600 93.569 C 175.700 93.352,177.410 93.006,178.400 92.800 C 182.643 91.918,184.709 91.540,186.400 91.338 C 187.390 91.219,188.371 90.960,188.580 90.761 C 188.789 90.563,190.229 90.379,191.780 90.353 C 193.331 90.327,195.140 90.162,195.800 89.986 C 197.439 89.549,217.529 89.851,221.000 90.365 " stroke="none" fill="#0e0e0e" fill-rule="evenodd"></path><path id="path2" d="M201.000 90.195 C 200.780 90.295,198.350 90.565,195.600 90.795 C 192.850 91.025,189.610 91.386,188.400 91.596 C 187.190 91.807,185.480 92.085,184.600 92.214 C 183.720 92.344,182.640 92.607,182.200 92.800 C 181.449 93.129,180.531 93.302,176.600 93.856 C 175.720 93.980,174.829 94.244,174.620 94.441 C 174.411 94.638,173.567 94.800,172.744 94.800 C 171.921 94.800,171.136 94.980,171.000 95.200 C 170.864 95.420,169.953 95.600,168.976 95.600 C 167.999 95.600,167.200 95.780,167.200 96.000 C 167.200 96.220,166.390 96.400,165.400 96.400 C 164.410 96.400,163.600 96.580,163.600 96.800 C 163.600 97.051,166.133 97.200,170.400 97.200 C 174.667 97.200,177.200 97.051,177.200 96.800 C 177.200 96.580,177.965 96.399,178.900 96.398 C 179.835 96.397,181.255 96.214,182.055 95.991 C 188.321 94.251,208.178 93.324,218.000 94.313 C 228.242 95.344,230.684 95.629,232.520 96.006 C 233.576 96.223,235.410 96.400,236.596 96.400 C 237.782 96.400,238.864 96.580,239.000 96.800 C 239.153 97.048,242.737 97.200,248.424 97.200 C 254.275 97.200,257.600 97.055,257.600 96.800 C 257.600 96.574,256.467 96.400,255.000 96.400 C 253.570 96.400,252.400 96.236,252.400 96.036 C 252.400 95.835,251.365 95.575,250.100 95.458 C 247.545 95.221,244.495 94.774,234.900 93.230 C 233.635 93.026,231.340 92.673,229.800 92.445 C 228.260 92.217,225.740 91.835,224.200 91.594 C 218.291 90.673,214.771 90.365,208.200 90.192 C 204.460 90.093,201.220 90.095,201.000 90.195 M213.800 115.200 C 215.492 115.631,216.944 115.631,215.600 115.200 C 215.050 115.024,214.150 114.883,213.600 114.887 C 212.702 114.894,212.722 114.926,213.800 115.200 M230.000 117.600 C 230.550 117.776,231.360 117.920,231.800 117.920 C 232.433 117.920,232.392 117.854,231.600 117.600 C 231.050 117.424,230.240 117.280,229.800 117.280 C 229.167 117.280,229.208 117.346,230.000 117.600 M205.800 118.400 C 206.240 118.589,206.960 118.738,207.400 118.732 C 208.043 118.723,208.004 118.657,207.200 118.400 C 205.832 117.962,204.781 117.962,205.800 118.400 M235.200 118.400 C 235.750 118.576,236.650 118.717,237.200 118.713 C 238.098 118.706,238.078 118.674,237.000 118.400 C 235.308 117.969,233.856 117.969,235.200 118.400 M211.200 119.200 C 211.750 119.376,212.560 119.520,213.000 119.520 C 213.633 119.520,213.592 119.454,212.800 119.200 C 212.250 119.024,211.440 118.880,211.000 118.880 C 210.367 118.880,210.408 118.946,211.200 119.200 M242.100 119.476 C 242.485 119.576,243.115 119.576,243.500 119.476 C 243.885 119.375,243.570 119.293,242.800 119.293 C 242.030 119.293,241.715 119.375,242.100 119.476 M216.400 120.000 C 216.950 120.176,217.850 120.317,218.400 120.313 C 219.298 120.306,219.278 120.274,218.200 120.000 C 216.508 119.569,215.056 119.569,216.400 120.000 M222.000 120.800 C 222.550 120.976,223.450 121.117,224.000 121.113 C 224.898 121.106,224.878 121.074,223.800 120.800 C 222.108 120.369,220.656 120.369,222.000 120.800 M232.800 122.405 C 233.130 122.616,233.925 122.791,234.567 122.794 C 236.114 122.802,235.777 122.571,233.800 122.268 C 232.710 122.101,232.391 122.145,232.800 122.405 M264.100 122.676 C 264.485 122.776,265.115 122.776,265.500 122.676 C 265.885 122.575,265.570 122.493,264.800 122.493 C 264.030 122.493,263.715 122.575,264.100 122.676 M238.000 123.180 C 238.999 123.520,241.482 123.732,241.167 123.451 C 241.075 123.369,240.100 123.199,239.000 123.072 C 237.651 122.916,237.326 122.951,238.000 123.180 M269.300 123.476 C 269.685 123.576,270.315 123.576,270.700 123.476 C 271.085 123.375,270.770 123.293,270.000 123.293 C 269.230 123.293,268.915 123.375,269.300 123.476 M274.900 124.276 C 275.285 124.376,275.915 124.376,276.300 124.276 C 276.685 124.175,276.370 124.093,275.600 124.093 C 274.830 124.093,274.515 124.175,274.900 124.276 M250.100 125.076 C 250.485 125.176,251.115 125.176,251.500 125.076 C 251.885 124.975,251.570 124.893,250.800 124.893 C 250.030 124.893,249.715 124.975,250.100 125.076 M255.700 125.876 C 256.085 125.976,256.715 125.976,257.100 125.876 C 257.485 125.775,257.170 125.693,256.400 125.693 C 255.630 125.693,255.315 125.775,255.700 125.876 M291.300 126.676 C 291.685 126.776,292.315 126.776,292.700 126.676 C 293.085 126.575,292.770 126.493,292.000 126.493 C 291.230 126.493,290.915 126.575,291.300 126.676 M266.100 127.476 C 266.485 127.576,267.115 127.576,267.500 127.476 C 267.885 127.375,267.570 127.293,266.800 127.293 C 266.030 127.293,265.715 127.375,266.100 127.476 M271.700 128.276 C 272.085 128.376,272.715 128.376,273.100 128.276 C 273.485 128.175,273.170 128.093,272.400 128.093 C 271.630 128.093,271.315 128.175,271.700 128.276 M302.600 128.400 C 304.292 128.831,305.744 128.831,304.400 128.400 C 303.850 128.224,302.950 128.083,302.400 128.087 C 301.502 128.094,301.522 128.126,302.600 128.400 M308.200 129.200 C 309.892 129.631,311.344 129.631,310.000 129.200 C 309.450 129.024,308.550 128.883,308.000 128.887 C 307.102 128.894,307.122 128.926,308.200 129.200 M282.100 129.876 C 282.485 129.976,283.115 129.976,283.500 129.876 C 283.885 129.775,283.570 129.693,282.800 129.693 C 282.030 129.693,281.715 129.775,282.100 129.876 M319.200 130.800 C 320.568 131.238,321.619 131.238,320.600 130.800 C 320.160 130.611,319.440 130.462,319.000 130.468 C 318.357 130.477,318.396 130.543,319.200 130.800 M324.400 131.600 C 324.950 131.776,325.760 131.920,326.200 131.920 C 326.833 131.920,326.792 131.854,326.000 131.600 C 325.450 131.424,324.640 131.280,324.200 131.280 C 323.567 131.280,323.608 131.346,324.400 131.600 M298.200 132.400 C 299.892 132.831,301.344 132.831,300.000 132.400 C 299.450 132.224,298.550 132.083,298.000 132.087 C 297.102 132.094,297.122 132.126,298.200 132.400 M329.600 132.400 C 330.150 132.576,330.960 132.720,331.400 132.720 C 332.033 132.720,331.992 132.654,331.200 132.400 C 330.650 132.224,329.840 132.080,329.400 132.080 C 328.767 132.080,328.808 132.146,329.600 132.400 M303.200 133.200 C 303.750 133.376,304.560 133.520,305.000 133.520 C 305.633 133.520,305.592 133.454,304.800 133.200 C 304.250 133.024,303.440 132.880,303.000 132.880 C 302.367 132.880,302.408 132.946,303.200 133.200 M334.033 132.947 C 334.125 133.028,334.920 133.204,335.800 133.338 C 336.915 133.507,337.158 133.471,336.600 133.219 C 335.832 132.871,333.690 132.644,334.033 132.947 M308.200 134.000 C 308.640 134.189,309.360 134.338,309.800 134.332 C 310.443 134.323,310.404 134.257,309.600 134.000 C 308.232 133.562,307.181 133.562,308.200 134.000 M317.400 135.600 C 317.840 135.789,318.560 135.938,319.000 135.932 C 319.643 135.923,319.604 135.857,318.800 135.600 C 317.432 135.162,316.381 135.162,317.400 135.600 M326.200 137.200 C 326.640 137.389,327.270 137.544,327.600 137.544 C 327.978 137.544,327.904 137.417,327.400 137.200 C 326.960 137.011,326.330 136.856,326.000 136.856 C 325.622 136.856,325.696 136.983,326.200 137.200 M326.201 190.764 C 326.362 191.955,326.750 193.485,327.065 194.164 L 327.638 195.400 327.401 194.200 C 326.294 188.605,325.669 186.814,326.201 190.764 M327.348 201.200 C 327.348 203.510,327.414 204.455,327.495 203.300 C 327.576 202.145,327.576 200.255,327.495 199.100 C 327.414 197.945,327.348 198.890,327.348 201.200 M326.937 222.600 C 326.939 224.360,327.009 225.030,327.093 224.089 C 327.178 223.149,327.177 221.709,327.091 220.889 C 327.005 220.070,326.936 220.840,326.937 222.600 M93.390 223.119 C 93.506 223.419,93.606 224.416,93.613 225.333 C 93.625 226.886,93.666 226.947,94.213 226.224 C 95.150 224.984,94.997 222.435,93.990 222.511 C 93.483 222.549,93.259 222.776,93.390 223.119 " stroke="none" fill="#444444" fill-rule="evenodd"></path><path id="path3" d="M204.252 114.316 C 204.144 114.490,204.718 114.567,205.528 114.487 C 207.742 114.269,208.005 114.067,206.124 114.032 C 205.202 114.014,204.359 114.142,204.252 114.316 M210.900 115.076 C 211.285 115.176,211.915 115.176,212.300 115.076 C 212.685 114.975,212.370 114.893,211.600 114.893 C 210.830 114.893,210.515 114.975,210.900 115.076 M217.400 116.023 C 219.426 116.442,221.063 116.423,219.400 116.000 C 218.740 115.832,217.660 115.694,217.000 115.693 C 215.991 115.692,216.055 115.745,217.400 116.023 M221.633 116.549 C 221.725 116.631,222.700 116.801,223.800 116.928 C 225.149 117.084,225.474 117.049,224.800 116.820 C 223.801 116.480,221.318 116.268,221.633 116.549 M228.400 117.600 C 228.950 117.776,229.760 117.920,230.200 117.920 C 230.833 117.920,230.792 117.854,230.000 117.600 C 229.450 117.424,228.640 117.280,228.200 117.280 C 227.567 117.280,227.608 117.346,228.400 117.600 M207.200 118.393 C 208.188 118.716,211.489 118.935,211.167 118.656 C 211.075 118.576,209.920 118.411,208.600 118.288 C 207.109 118.149,206.579 118.189,207.200 118.393 M233.600 118.400 C 234.150 118.576,234.960 118.720,235.400 118.720 C 236.033 118.720,235.992 118.654,235.200 118.400 C 234.650 118.224,233.840 118.080,233.400 118.080 C 232.767 118.080,232.808 118.146,233.600 118.400 M212.800 119.193 C 213.788 119.516,217.089 119.735,216.767 119.456 C 216.675 119.376,215.520 119.211,214.200 119.088 C 212.709 118.949,212.179 118.989,212.800 119.193 M239.000 119.200 C 239.440 119.389,240.250 119.538,240.800 119.532 L 241.800 119.520 240.800 119.200 C 240.250 119.024,239.440 118.874,239.000 118.868 L 238.200 118.856 239.000 119.200 M218.200 119.980 C 219.434 120.315,222.264 120.518,221.967 120.250 C 221.875 120.168,220.720 120.000,219.400 119.877 C 217.822 119.730,217.411 119.765,218.200 119.980 M244.400 120.000 C 244.950 120.176,245.850 120.317,246.400 120.313 C 247.298 120.306,247.278 120.274,246.200 120.000 C 244.508 119.569,243.056 119.569,244.400 120.000 M249.800 120.790 C 250.564 121.128,253.114 121.357,252.767 121.056 C 252.675 120.976,251.790 120.804,250.800 120.673 C 249.598 120.514,249.266 120.553,249.800 120.790 M225.505 121.083 C 226.002 121.179,226.722 121.175,227.105 121.075 C 227.487 120.975,227.080 120.896,226.200 120.901 C 225.320 120.905,225.007 120.987,225.505 121.083 M255.000 121.597 C 255.764 121.928,258.714 122.155,258.367 121.856 C 258.275 121.777,257.300 121.609,256.200 121.482 C 254.913 121.333,254.485 121.374,255.000 121.597 M230.900 121.876 C 231.285 121.976,231.915 121.976,232.300 121.876 C 232.685 121.775,232.370 121.693,231.600 121.693 C 230.830 121.693,230.515 121.775,230.900 121.876 M260.400 122.380 C 261.399 122.720,263.882 122.932,263.567 122.651 C 263.475 122.569,262.500 122.399,261.400 122.272 C 260.051 122.116,259.726 122.151,260.400 122.380 M236.305 122.683 C 236.802 122.779,237.522 122.775,237.905 122.675 C 238.287 122.575,237.880 122.496,237.000 122.501 C 236.120 122.505,235.807 122.587,236.305 122.683 M265.800 123.200 C 266.240 123.389,267.140 123.535,267.800 123.525 L 269.000 123.505 267.800 123.200 C 267.140 123.032,266.240 122.886,265.800 122.875 L 265.000 122.856 265.800 123.200 M241.233 123.346 C 241.325 123.426,242.390 123.594,243.600 123.719 C 245.020 123.866,245.446 123.829,244.800 123.613 C 243.809 123.283,240.913 123.065,241.233 123.346 M271.200 123.980 C 272.199 124.320,274.682 124.532,274.367 124.251 C 274.275 124.169,273.300 123.999,272.200 123.872 C 270.851 123.716,270.526 123.751,271.200 123.980 M246.433 124.144 C 246.525 124.223,247.500 124.391,248.600 124.518 C 249.887 124.667,250.315 124.626,249.800 124.403 C 249.036 124.072,246.086 123.845,246.433 124.144 M276.600 124.780 C 277.361 125.126,280.317 125.364,279.967 125.051 C 279.875 124.969,278.900 124.793,277.800 124.659 C 276.454 124.495,276.061 124.535,276.600 124.780 M252.033 124.949 C 252.125 125.031,253.100 125.201,254.200 125.328 C 255.549 125.484,255.874 125.449,255.200 125.220 C 254.201 124.880,251.718 124.668,252.033 124.949 M281.800 125.604 C 282.567 125.930,285.911 126.153,285.567 125.856 C 285.475 125.777,284.410 125.611,283.200 125.488 C 281.831 125.349,281.302 125.392,281.800 125.604 M257.633 125.744 C 257.725 125.824,258.610 125.996,259.600 126.127 C 260.802 126.286,261.134 126.247,260.600 126.010 C 259.836 125.672,257.286 125.443,257.633 125.744 M287.200 126.387 C 288.191 126.717,291.087 126.935,290.767 126.654 C 290.675 126.574,289.610 126.406,288.400 126.281 C 286.980 126.134,286.554 126.171,287.200 126.387 M262.433 126.544 C 262.525 126.623,263.500 126.791,264.600 126.918 C 265.887 127.067,266.315 127.026,265.800 126.803 C 265.036 126.472,262.086 126.245,262.433 126.544 M292.600 127.180 C 293.834 127.515,296.664 127.718,296.367 127.450 C 296.275 127.368,295.120 127.200,293.800 127.077 C 292.222 126.930,291.811 126.965,292.600 127.180 M269.000 127.600 C 269.660 127.768,270.560 127.914,271.000 127.925 L 271.800 127.944 271.000 127.600 C 270.560 127.411,269.660 127.265,269.000 127.275 L 267.800 127.295 269.000 127.600 M298.000 127.987 C 298.991 128.317,301.887 128.535,301.567 128.254 C 301.475 128.174,300.410 128.006,299.200 127.881 C 297.780 127.734,297.354 127.771,298.000 127.987 M273.633 128.147 C 273.725 128.228,274.520 128.404,275.400 128.538 C 276.515 128.707,276.758 128.671,276.200 128.419 C 275.432 128.071,273.290 127.844,273.633 128.147 M279.400 129.200 C 280.060 129.368,280.960 129.514,281.400 129.525 L 282.200 129.544 281.400 129.200 C 280.960 129.011,280.060 128.865,279.400 128.875 L 278.200 128.895 279.400 129.200 M304.700 129.082 C 305.195 129.178,306.005 129.178,306.500 129.082 C 306.995 128.987,306.590 128.909,305.600 128.909 C 304.610 128.909,304.205 128.987,304.700 129.082 M284.800 130.000 C 285.350 130.176,286.160 130.320,286.600 130.320 C 287.233 130.320,287.192 130.254,286.400 130.000 C 285.850 129.824,285.040 129.680,284.600 129.680 C 283.967 129.680,284.008 129.746,284.800 130.000 M310.300 129.882 C 310.795 129.978,311.605 129.978,312.100 129.882 C 312.595 129.787,312.190 129.709,311.200 129.709 C 310.210 129.709,309.805 129.787,310.300 129.882 M289.800 130.800 C 291.492 131.231,292.944 131.231,291.600 130.800 C 291.050 130.624,290.150 130.483,289.600 130.487 C 288.702 130.494,288.722 130.526,289.800 130.800 M315.233 130.544 C 315.325 130.624,316.480 130.789,317.800 130.912 C 319.291 131.051,319.821 131.011,319.200 130.807 C 318.212 130.484,314.911 130.265,315.233 130.544 M294.800 131.600 C 295.350 131.776,296.160 131.920,296.600 131.920 C 297.233 131.920,297.192 131.854,296.400 131.600 C 295.850 131.424,295.040 131.280,294.600 131.280 C 293.967 131.280,294.008 131.346,294.800 131.600 M320.833 131.346 C 320.925 131.426,321.990 131.594,323.200 131.719 C 324.620 131.866,325.046 131.829,324.400 131.613 C 323.409 131.283,320.513 131.065,320.833 131.346 M300.000 132.400 C 301.368 132.838,302.419 132.838,301.400 132.400 C 300.960 132.211,300.240 132.062,299.800 132.068 C 299.157 132.077,299.196 132.143,300.000 132.400 M326.433 132.149 C 326.525 132.231,327.500 132.401,328.600 132.528 C 329.949 132.684,330.274 132.649,329.600 132.420 C 328.601 132.080,326.118 131.868,326.433 132.149 M304.800 133.200 C 305.350 133.376,306.250 133.517,306.800 133.513 C 307.698 133.506,307.678 133.474,306.600 133.200 C 304.908 132.769,303.456 132.769,304.800 133.200 M309.600 133.980 C 310.599 134.320,313.082 134.532,312.767 134.251 C 312.675 134.169,311.700 133.999,310.600 133.872 C 309.251 133.716,308.926 133.751,309.600 133.980 M314.200 134.800 C 314.860 134.968,315.940 135.106,316.600 135.107 C 317.609 135.108,317.545 135.055,316.200 134.777 C 314.174 134.358,312.537 134.377,314.200 134.800 M320.100 135.876 C 320.485 135.976,321.115 135.976,321.500 135.876 C 321.885 135.775,321.570 135.693,320.800 135.693 C 320.030 135.693,319.715 135.775,320.100 135.876 M324.500 136.676 C 324.885 136.776,325.515 136.776,325.900 136.676 C 326.285 136.575,325.970 136.493,325.200 136.493 C 324.430 136.493,324.115 136.575,324.500 136.676 M328.900 137.487 C 329.511 137.579,330.000 137.908,330.000 138.227 C 330.000 138.542,330.180 138.800,330.400 138.800 C 330.620 138.800,330.800 138.656,330.800 138.480 C 330.800 137.816,329.803 137.202,328.820 137.260 C 327.813 137.319,327.815 137.322,328.900 137.487 M338.751 161.382 C 338.605 161.528,333.093 161.935,330.400 161.998 C 329.867 162.011,329.867 162.055,330.400 162.400 C 330.885 162.714,330.828 162.789,330.100 162.794 C 329.419 162.799,329.200 163.033,329.200 163.757 C 329.200 164.284,328.919 164.822,328.575 164.954 C 327.798 165.253,328.117 165.833,329.216 166.120 C 329.832 166.281,330.138 166.089,330.413 165.365 C 330.616 164.831,330.921 164.424,331.091 164.461 C 331.261 164.497,331.713 164.390,332.095 164.222 C 334.562 163.142,338.050 165.354,339.832 169.129 C 340.868 171.323,342.369 172.800,343.562 172.800 C 343.814 172.800,344.000 172.038,344.000 171.000 C 344.000 170.010,343.820 169.200,343.600 169.200 C 343.380 169.200,343.200 168.229,343.200 167.042 C 343.200 164.427,339.902 160.231,338.751 161.382 M327.606 199.724 C 327.602 203.039,327.741 204.760,328.000 204.600 C 328.516 204.281,328.516 195.998,328.000 195.200 C 327.738 194.795,327.610 196.268,327.606 199.724 M342.954 195.686 C 342.319 196.174,341.653 196.759,341.473 196.986 C 340.965 197.628,341.498 216.828,342.172 222.200 C 342.646 225.970,342.779 232.064,342.796 250.600 C 342.810 267.103,342.960 274.982,343.294 276.800 C 343.979 280.523,343.958 300.669,343.267 303.754 C 341.984 309.478,336.598 312.417,328.400 311.867 C 327.133 311.782,326.689 312.556,327.906 312.729 C 328.404 312.799,328.709 313.024,328.582 313.229 C 328.444 313.452,331.464 313.600,336.176 313.600 C 340.479 313.600,344.000 313.463,344.000 313.295 C 344.000 313.127,344.405 312.812,344.900 312.595 C 345.395 312.378,345.978 311.795,346.195 311.300 C 346.412 310.805,346.727 310.400,346.895 310.400 C 347.063 310.400,347.200 310.040,347.200 309.600 C 347.200 309.160,347.380 308.800,347.600 308.800 C 347.851 308.800,348.000 306.200,348.000 301.800 C 348.000 297.400,347.851 294.800,347.600 294.800 C 347.342 294.800,347.200 290.400,347.200 282.400 C 347.200 274.400,347.058 270.000,346.800 270.000 C 346.542 270.000,346.400 265.608,346.400 257.624 C 346.400 249.804,346.253 245.156,346.000 245.000 C 345.747 244.844,345.600 240.196,345.600 232.376 C 345.600 224.392,345.458 220.000,345.200 220.000 C 344.942 220.000,344.800 215.533,344.800 207.400 C 344.800 200.470,344.644 194.800,344.454 194.800 C 344.264 194.800,343.589 195.199,342.954 195.686 M327.142 217.000 C 327.000 223.600,326.765 229.450,326.619 230.000 C 326.359 230.981,326.366 230.979,326.983 229.913 C 327.523 228.979,327.597 227.150,327.506 216.913 L 327.400 205.000 327.142 217.000 M325.342 246.200 C 325.341 248.180,325.408 249.040,325.492 248.112 C 325.576 247.184,325.577 245.564,325.495 244.512 C 325.412 243.460,325.343 244.220,325.342 246.200 " stroke="none" fill="#c06c04" fill-rule="evenodd"></path><path id="path4" d="M195.800 89.986 C 195.140 90.162,193.331 90.327,191.780 90.353 C 190.229 90.379,188.789 90.563,188.580 90.761 C 188.371 90.960,187.390 91.219,186.400 91.338 C 184.709 91.540,182.643 91.918,178.400 92.800 C 177.410 93.006,175.700 93.352,174.600 93.569 C 173.500 93.786,171.700 94.152,170.600 94.382 C 169.500 94.612,167.700 94.973,166.600 95.184 C 165.500 95.395,163.790 95.738,162.800 95.947 C 161.810 96.155,159.920 96.539,158.600 96.800 C 157.280 97.061,155.390 97.446,154.400 97.655 C 152.515 98.055,150.354 98.492,147.000 99.153 C 145.050 99.537,141.422 100.279,125.000 103.653 C 120.600 104.556,116.280 105.435,115.400 105.604 C 114.520 105.774,112.810 106.132,111.600 106.400 C 109.428 106.881,108.514 107.069,103.800 108.000 C 102.480 108.261,100.590 108.645,99.600 108.855 C 98.610 109.064,97.260 109.330,96.600 109.445 C 95.940 109.560,95.040 109.811,94.600 110.002 C 93.849 110.329,92.926 110.503,89.000 111.056 C 88.120 111.180,87.229 111.444,87.020 111.641 C 86.811 111.838,85.992 112.000,85.200 112.000 C 84.408 112.000,83.589 112.168,83.380 112.373 C 83.171 112.579,82.280 112.818,81.400 112.906 C 80.520 112.994,82.590 113.094,86.000 113.129 C 92.062 113.192,97.182 112.812,101.600 111.972 C 102.810 111.742,104.745 111.384,105.900 111.177 C 107.055 110.970,108.945 110.628,110.100 110.418 C 111.255 110.208,113.370 109.835,114.800 109.588 C 118.115 109.016,120.437 108.585,123.200 108.029 C 124.410 107.786,129.360 106.860,134.200 105.972 C 139.040 105.084,144.350 104.096,146.000 103.777 C 147.650 103.458,150.080 103.003,151.400 102.766 C 152.720 102.529,154.610 102.168,155.600 101.964 C 157.951 101.480,164.282 100.268,169.800 99.246 C 172.220 98.798,177.530 97.813,181.600 97.058 C 193.611 94.829,212.621 93.897,220.033 95.173 C 221.225 95.378,223.730 95.747,225.600 95.992 C 227.470 96.237,230.080 96.601,231.400 96.800 C 232.720 97.000,235.870 97.443,238.400 97.784 C 244.976 98.673,248.613 99.173,251.700 99.614 C 253.185 99.826,255.615 100.174,257.100 100.386 C 258.585 100.598,261.240 100.967,263.000 101.206 C 264.760 101.445,267.190 101.799,268.400 101.993 C 269.610 102.186,272.130 102.545,274.000 102.791 C 275.870 103.037,278.480 103.405,279.800 103.610 C 282.084 103.963,299.397 106.329,306.200 107.217 C 307.960 107.447,309.940 107.733,310.600 107.852 C 311.260 107.971,313.015 108.233,314.500 108.434 C 315.985 108.635,318.505 108.982,320.100 109.204 C 321.695 109.426,324.530 109.799,326.400 110.032 C 328.270 110.266,330.970 110.619,332.400 110.817 C 333.830 111.015,336.350 111.348,338.000 111.556 C 339.650 111.764,342.440 112.137,344.200 112.385 C 345.960 112.633,352.530 112.896,358.800 112.969 C 365.070 113.042,369.075 113.025,367.700 112.932 C 366.325 112.838,365.200 112.606,365.200 112.416 C 365.200 112.226,364.165 111.975,362.900 111.858 C 361.635 111.740,359.520 111.468,358.200 111.252 C 356.880 111.036,354.540 110.665,353.000 110.428 C 346.679 109.453,345.363 109.237,344.600 109.050 C 344.160 108.943,342.360 108.653,340.600 108.407 C 338.840 108.161,336.410 107.797,335.200 107.600 C 333.990 107.403,331.560 107.032,329.800 106.776 C 328.040 106.520,325.070 106.056,323.200 105.744 C 321.330 105.432,317.280 104.809,314.200 104.359 C 311.120 103.910,307.610 103.388,306.400 103.200 C 301.977 102.511,298.140 101.927,295.600 101.556 C 294.170 101.346,291.920 101.007,290.600 100.801 C 289.280 100.595,286.850 100.229,285.200 99.987 C 281.829 99.493,278.723 99.027,274.600 98.397 C 273.060 98.162,270.540 97.783,269.000 97.555 C 267.460 97.327,265.210 96.985,264.000 96.796 C 262.790 96.607,260.360 96.248,258.600 96.000 C 256.840 95.752,254.410 95.393,253.200 95.204 C 251.990 95.015,249.695 94.666,248.100 94.430 C 246.505 94.193,243.895 93.807,242.300 93.570 C 240.705 93.334,238.320 92.975,237.000 92.774 C 235.680 92.573,233.340 92.221,231.800 91.992 C 230.260 91.763,227.830 91.397,226.400 91.177 C 224.970 90.958,222.540 90.593,221.000 90.365 C 217.529 89.851,197.439 89.549,195.800 89.986 M218.200 90.764 C 219.960 90.981,222.660 91.354,224.200 91.594 C 225.740 91.835,228.260 92.217,229.800 92.445 C 231.340 92.673,233.635 93.026,234.900 93.230 C 244.495 94.774,247.545 95.221,250.100 95.458 C 251.365 95.575,252.400 95.835,252.400 96.036 C 252.400 96.236,253.570 96.400,255.000 96.400 C 256.467 96.400,257.600 96.574,257.600 96.800 C 257.600 97.055,254.275 97.200,248.424 97.200 C 242.737 97.200,239.153 97.048,239.000 96.800 C 238.864 96.580,237.782 96.400,236.596 96.400 C 235.410 96.400,233.576 96.223,232.520 96.006 C 230.684 95.629,228.242 95.344,218.000 94.313 C 208.178 93.324,188.321 94.251,182.055 95.991 C 181.255 96.214,179.835 96.397,178.900 96.398 C 177.965 96.399,177.200 96.580,177.200 96.800 C 177.200 97.051,174.667 97.200,170.400 97.200 C 166.133 97.200,163.600 97.051,163.600 96.800 C 163.600 96.580,164.410 96.400,165.400 96.400 C 166.390 96.400,167.200 96.220,167.200 96.000 C 167.200 95.780,167.999 95.600,168.976 95.600 C 169.953 95.600,170.864 95.420,171.000 95.200 C 171.136 94.980,171.921 94.800,172.744 94.800 C 173.567 94.800,174.411 94.638,174.620 94.441 C 174.829 94.244,175.720 93.980,176.600 93.856 C 180.531 93.302,181.449 93.129,182.200 92.800 C 182.640 92.607,183.720 92.344,184.600 92.214 C 185.480 92.085,187.190 91.807,188.400 91.596 C 189.610 91.386,192.850 91.025,195.600 90.795 C 198.350 90.565,200.780 90.295,201.000 90.195 C 201.644 89.902,214.706 90.334,218.200 90.764 M205.300 113.887 C 205.905 113.978,206.895 113.978,207.500 113.887 C 208.105 113.795,207.610 113.720,206.400 113.720 C 205.190 113.720,204.695 113.795,205.300 113.887 M203.364 115.000 C 202.833 117.115,204.469 119.263,206.161 118.673 C 206.402 118.589,206.015 118.389,205.300 118.228 C 203.870 117.907,203.323 116.758,203.764 115.000 C 203.902 114.450,203.925 114.000,203.815 114.000 C 203.705 114.000,203.502 114.450,203.364 115.000 M210.000 114.398 C 210.988 114.716,214.689 114.935,214.367 114.656 C 214.275 114.577,213.030 114.414,211.600 114.294 C 210.040 114.163,209.400 114.205,210.000 114.398 M217.100 115.482 C 217.595 115.578,218.405 115.578,218.900 115.482 C 219.395 115.387,218.990 115.309,218.000 115.309 C 217.010 115.309,216.605 115.387,217.100 115.482 M222.033 116.144 C 222.125 116.224,223.280 116.389,224.600 116.512 C 226.091 116.651,226.621 116.611,226.000 116.407 C 225.012 116.084,221.711 115.865,222.033 116.144 M227.900 117.082 C 228.395 117.178,229.205 117.178,229.700 117.082 C 230.195 116.987,229.790 116.909,228.800 116.909 C 227.810 116.909,227.405 116.987,227.900 117.082 M232.433 117.745 C 232.525 117.824,233.680 117.987,235.000 118.107 C 236.449 118.238,237.083 118.192,236.600 117.990 C 235.830 117.669,232.093 117.449,232.433 117.745 M238.033 118.544 C 238.125 118.623,239.190 118.799,240.400 118.934 C 241.870 119.098,242.401 119.052,242.000 118.796 C 241.456 118.448,237.642 118.206,238.033 118.544 M207.633 118.946 C 207.725 119.026,208.790 119.194,210.000 119.319 C 211.420 119.466,211.846 119.429,211.200 119.213 C 210.209 118.883,207.313 118.665,207.633 118.946 M244.033 119.345 C 244.125 119.425,245.001 119.592,245.979 119.718 C 247.130 119.865,247.554 119.816,247.179 119.579 C 246.645 119.240,243.658 119.019,244.033 119.345 M213.233 119.749 C 213.325 119.831,214.300 120.001,215.400 120.128 C 216.749 120.284,217.074 120.249,216.400 120.020 C 215.401 119.680,212.918 119.468,213.233 119.749 M249.233 120.144 C 249.325 120.223,250.300 120.391,251.400 120.518 C 252.687 120.667,253.115 120.626,252.600 120.403 C 251.836 120.072,248.886 119.845,249.233 120.144 M220.200 120.800 C 221.892 121.231,223.344 121.231,222.000 120.800 C 221.450 120.624,220.550 120.483,220.000 120.487 C 219.102 120.494,219.122 120.526,220.200 120.800 M254.833 120.944 C 254.925 121.024,255.810 121.196,256.800 121.327 C 258.002 121.486,258.334 121.447,257.800 121.210 C 257.036 120.872,254.486 120.643,254.833 120.944 M226.000 121.600 C 226.550 121.776,227.360 121.920,227.800 121.920 C 228.433 121.920,228.392 121.854,227.600 121.600 C 227.050 121.424,226.240 121.280,225.800 121.280 C 225.167 121.280,225.208 121.346,226.000 121.600 M260.433 121.747 C 260.525 121.828,261.320 122.014,262.200 122.162 C 263.346 122.354,263.630 122.314,263.200 122.021 C 262.660 121.653,260.032 121.393,260.433 121.747 M231.400 122.400 C 232.596 122.914,233.595 122.914,232.800 122.400 C 232.470 122.187,231.840 122.022,231.400 122.034 L 230.600 122.056 231.400 122.400 M266.033 122.543 C 266.476 122.922,268.817 123.151,268.596 122.794 C 268.462 122.577,267.793 122.400,267.110 122.400 C 266.426 122.400,265.942 122.464,266.033 122.543 M236.590 123.184 C 236.732 123.413,237.317 123.600,237.890 123.600 C 239.144 123.600,238.999 123.408,237.466 123.040 C 236.723 122.862,236.421 122.911,236.590 123.184 M271.233 123.347 C 271.700 123.758,274.457 124.016,274.216 123.626 C 274.071 123.391,273.303 123.200,272.510 123.200 C 271.716 123.200,271.142 123.266,271.233 123.347 M242.190 123.984 C 242.332 124.213,242.917 124.400,243.490 124.400 C 244.744 124.400,244.599 124.208,243.066 123.840 C 242.323 123.662,242.021 123.711,242.190 123.984 M276.833 124.144 C 277.305 124.550,279.243 124.793,279.010 124.416 C 278.868 124.187,278.283 124.000,277.710 124.000 C 277.136 124.000,276.742 124.065,276.833 124.144 M247.600 124.800 C 247.930 125.013,248.560 125.178,249.000 125.166 L 249.800 125.144 249.000 124.800 C 247.804 124.286,246.805 124.286,247.600 124.800 M282.000 124.955 C 282.000 125.040,282.530 125.187,283.179 125.282 C 283.827 125.377,284.267 125.308,284.155 125.128 C 283.957 124.807,282.000 124.650,282.000 124.955 M252.600 125.600 C 252.736 125.820,253.422 125.982,254.124 125.960 C 255.343 125.922,255.355 125.906,254.400 125.600 C 252.964 125.140,252.316 125.140,252.600 125.600 M287.633 125.744 C 288.105 126.150,290.043 126.393,289.810 126.016 C 289.668 125.787,289.083 125.600,288.510 125.600 C 287.936 125.600,287.542 125.665,287.633 125.744 M257.804 126.406 C 257.938 126.623,258.607 126.800,259.290 126.800 C 260.801 126.800,260.649 126.600,258.880 126.263 C 258.055 126.106,257.652 126.160,257.804 126.406 M293.800 126.800 C 294.996 127.314,295.995 127.314,295.200 126.800 C 294.870 126.587,294.240 126.422,293.800 126.434 L 293.000 126.456 293.800 126.800 M263.000 127.200 C 263.440 127.389,264.250 127.538,264.800 127.532 L 265.800 127.520 264.800 127.200 C 264.250 127.024,263.440 126.874,263.000 126.868 L 262.200 126.856 263.000 127.200 M299.000 127.600 C 300.196 128.114,301.195 128.114,300.400 127.600 C 300.070 127.387,299.440 127.222,299.000 127.234 L 298.200 127.256 299.000 127.600 M268.215 128.024 C 268.343 128.231,269.097 128.400,269.890 128.400 C 271.661 128.400,271.500 128.190,269.491 127.880 C 268.591 127.741,268.076 127.799,268.215 128.024 M304.400 128.400 C 304.950 128.576,305.760 128.720,306.200 128.720 C 306.833 128.720,306.792 128.654,306.000 128.400 C 305.450 128.224,304.640 128.080,304.200 128.080 C 303.567 128.080,303.608 128.146,304.400 128.400 M273.600 128.805 C 273.930 129.016,274.725 129.191,275.367 129.194 C 276.914 129.202,276.577 128.971,274.600 128.668 C 273.510 128.501,273.191 128.545,273.600 128.805 M310.000 129.200 C 310.550 129.376,311.360 129.520,311.800 129.520 C 312.433 129.520,312.392 129.454,311.600 129.200 C 311.050 129.024,310.240 128.880,309.800 128.880 C 309.167 128.880,309.208 128.946,310.000 129.200 M278.400 129.588 C 278.730 129.808,279.615 129.991,280.367 129.994 C 282.160 130.002,281.841 129.775,279.600 129.450 C 278.342 129.267,277.981 129.309,278.400 129.588 M315.200 129.980 C 316.199 130.320,318.682 130.532,318.367 130.251 C 318.275 130.169,317.300 129.999,316.200 129.872 C 314.851 129.716,314.526 129.751,315.200 129.980 M283.600 130.380 C 284.599 130.720,287.082 130.932,286.767 130.651 C 286.675 130.569,285.700 130.399,284.600 130.272 C 283.251 130.116,282.926 130.151,283.600 130.380 M320.600 130.797 C 321.364 131.128,324.314 131.355,323.967 131.056 C 323.875 130.977,322.900 130.809,321.800 130.682 C 320.513 130.533,320.085 130.574,320.600 130.797 M288.600 131.204 C 289.367 131.530,292.711 131.753,292.367 131.456 C 292.275 131.377,291.210 131.211,290.000 131.088 C 288.631 130.949,288.102 130.992,288.600 131.204 M293.800 131.997 C 294.564 132.328,297.514 132.555,297.167 132.256 C 297.075 132.177,296.100 132.009,295.000 131.882 C 293.713 131.733,293.285 131.774,293.800 131.997 M327.500 131.882 C 327.995 131.978,328.805 131.978,329.300 131.882 C 329.795 131.787,329.390 131.709,328.400 131.709 C 327.410 131.709,327.005 131.787,327.500 131.882 M331.200 132.398 C 332.188 132.716,335.889 132.935,335.567 132.656 C 335.475 132.577,334.230 132.414,332.800 132.294 C 331.240 132.163,330.600 132.205,331.200 132.398 M300.305 133.083 C 300.802 133.179,301.522 133.175,301.905 133.075 C 302.287 132.975,301.880 132.896,301.000 132.901 C 300.120 132.905,299.807 132.987,300.305 133.083 M336.400 133.086 C 336.730 133.208,337.360 133.474,337.800 133.676 C 338.587 134.038,338.588 134.034,337.824 133.422 C 337.396 133.080,336.766 132.814,336.424 132.832 C 335.885 132.859,335.882 132.893,336.400 133.086 M305.100 133.882 C 305.595 133.978,306.405 133.978,306.900 133.882 C 307.395 133.787,306.990 133.709,306.000 133.709 C 305.010 133.709,304.605 133.787,305.100 133.882 M309.633 134.544 C 309.725 134.623,310.700 134.791,311.800 134.918 C 313.087 135.067,313.515 135.026,313.000 134.803 C 312.236 134.472,309.286 134.245,309.633 134.544 M314.900 135.476 C 315.285 135.576,315.915 135.576,316.300 135.476 C 316.685 135.375,316.370 135.293,315.600 135.293 C 314.830 135.293,314.515 135.375,314.900 135.476 M325.000 137.200 C 325.440 137.389,326.070 137.544,326.400 137.544 C 326.778 137.544,326.704 137.417,326.200 137.200 C 325.760 137.011,325.130 136.856,324.800 136.856 C 324.422 136.856,324.496 136.983,325.000 137.200 M103.945 156.358 C 104.406 156.649,104.406 156.733,103.945 156.897 C 103.645 157.003,103.523 157.223,103.673 157.385 C 104.058 157.800,104.800 157.267,104.800 156.576 C 104.800 156.259,104.485 156.003,104.100 156.006 C 103.552 156.011,103.519 156.087,103.945 156.358 M102.964 161.750 C 102.629 162.621,102.863 162.855,103.608 162.395 C 104.066 162.112,104.088 161.928,103.710 161.550 C 103.332 161.172,103.169 161.215,102.964 161.750 M102.347 166.100 C 102.066 166.626,102.248 168.667,102.575 168.667 C 102.809 168.667,103.026 168.248,103.058 167.736 C 103.093 167.170,102.948 166.908,102.690 167.068 C 102.423 167.233,102.359 167.083,102.519 166.666 C 102.721 166.141,102.576 165.669,102.347 166.100 M101.200 172.000 C 101.200 172.220,101.470 172.400,101.800 172.400 C 102.130 172.400,102.400 172.220,102.400 172.000 C 102.400 171.780,102.130 171.600,101.800 171.600 C 101.470 171.600,101.200 171.780,101.200 172.000 M100.543 177.589 C 100.498 178.682,100.563 178.741,101.346 178.322 C 101.882 178.035,102.013 177.804,101.699 177.700 C 101.425 177.608,101.200 177.278,101.200 176.967 C 101.200 175.849,100.590 176.426,100.543 177.589 M98.833 187.713 C 98.925 187.775,99.285 188.043,99.633 188.307 C 100.142 188.693,100.267 188.671,100.267 188.194 C 100.267 187.867,99.907 187.600,99.467 187.600 C 99.027 187.600,98.742 187.651,98.833 187.713 M325.701 189.000 C 325.705 189.880,325.787 190.193,325.883 189.695 C 325.979 189.198,325.975 188.478,325.875 188.095 C 325.775 187.713,325.696 188.120,325.701 189.000 M98.500 191.893 C 98.225 191.989,98.000 192.425,98.000 192.862 C 98.000 193.587,98.056 193.601,98.632 193.025 C 99.343 192.315,99.263 191.629,98.500 191.893 M97.570 196.900 C 97.276 197.890,97.291 198.800,97.603 198.800 C 97.821 198.800,98.000 198.530,98.000 198.200 C 98.000 197.870,98.191 197.600,98.424 197.600 C 98.657 197.600,98.736 197.420,98.600 197.200 C 98.382 196.847,97.649 196.634,97.570 196.900 M96.606 202.390 C 96.291 202.900,96.946 203.204,97.553 202.829 C 97.954 202.581,97.931 202.459,97.446 202.273 C 97.105 202.142,96.727 202.195,96.606 202.390 M96.380 207.100 C 95.642 207.965,95.453 209.719,96.123 209.484 C 96.385 209.392,96.543 209.003,96.473 208.618 C 96.404 208.234,96.494 208.011,96.673 208.122 C 96.853 208.233,97.000 207.891,97.000 207.362 C 97.000 206.833,96.995 206.400,96.989 206.400 C 96.983 206.400,96.709 206.715,96.380 207.100 M95.250 212.334 C 94.668 213.391,94.775 213.710,95.551 213.230 C 95.841 213.051,96.008 212.566,95.922 212.152 C 95.780 211.470,95.717 211.487,95.250 212.334 M326.600 219.600 C 326.438 223.802,326.394 227.327,326.501 227.435 C 326.609 227.542,326.829 224.192,326.990 219.990 C 327.151 215.788,327.196 212.262,327.089 212.155 C 326.982 212.048,326.762 215.398,326.600 219.600 M94.804 216.595 C 94.533 216.922,94.415 217.462,94.543 217.795 C 94.670 218.128,94.601 218.400,94.387 218.400 C 94.174 218.400,94.000 218.574,94.000 218.787 C 94.000 219.001,94.252 219.078,94.561 218.960 C 95.230 218.703,95.703 217.200,95.114 217.200 C 94.870 217.200,94.905 216.955,95.200 216.600 C 95.474 216.270,95.608 216.000,95.498 216.000 C 95.388 216.000,95.076 216.268,94.804 216.595 M94.303 221.400 C 94.790 223.475,94.836 225.186,94.424 225.956 L 93.972 226.800 106.753 226.800 C 116.301 226.800,119.574 226.679,119.693 226.322 C 119.873 225.782,167.774 226.541,175.800 227.212 C 189.802 228.382,193.187 228.796,201.400 230.339 C 208.665 231.705,214.862 234.612,216.257 237.310 L 216.884 238.522 217.932 237.161 C 218.509 236.413,219.486 235.285,220.103 234.656 C 220.859 233.887,221.148 233.265,220.986 232.756 C 220.642 231.673,220.148 231.812,218.690 233.400 C 217.160 235.068,216.753 235.122,215.756 233.789 C 214.639 232.296,212.260 230.851,210.439 230.560 C 209.558 230.419,208.531 229.965,208.156 229.552 C 207.647 228.989,206.914 228.798,205.238 228.793 C 203.403 228.787,202.837 228.614,202.093 227.830 C 201.434 227.135,200.614 226.820,199.093 226.678 C 197.942 226.570,196.190 226.276,195.200 226.024 C 192.688 225.385,188.416 224.789,178.200 223.654 C 176.220 223.434,168.570 222.886,161.200 222.436 C 153.830 221.987,145.370 221.432,142.400 221.203 C 135.374 220.661,115.600 220.659,115.600 221.200 C 115.600 221.837,94.506 221.738,94.287 221.100 C 94.192 220.825,94.199 220.960,94.303 221.400 M93.119 227.711 C 92.975 228.465,93.078 228.800,93.455 228.800 C 94.059 228.800,94.089 228.572,93.635 227.411 C 93.359 226.703,93.306 226.734,93.119 227.711 M109.298 229.870 C 109.021 229.979,108.901 230.239,109.030 230.449 C 109.330 230.934,123.600 230.864,123.600 230.377 C 123.600 230.181,126.435 229.968,129.900 229.904 C 133.365 229.840,130.260 229.762,123.000 229.730 C 115.740 229.698,109.574 229.761,109.298 229.870 " stroke="none" fill="#2f2f2d" fill-rule="evenodd"></path></g></svg>